/* XPM */
static char *eab68f6b0b4843d386d98e2145e8f409VG1mlfKG8aOar2CK[] = {
/* columns rows colors chars-per-pixel */
"128 128 2 1 ",
"  c #4A9918",
". c #68C62C",
/* pixels */
"................................................................................................................................",
"................................................   .............................................................................",
"..............................................   . .................................     .......................................",
"........   .................................  ....  ......  ....................... .... ...............  ...... ...............",
"......  ..  ................................ ...  . .....  ........................  ..  ..............    .....  ..............",
"...... .... ........... .................... ... .. ....  ..........................  ................       ....  ......     ..",
"....  ....  .......... ......................  .    ...  .......          ...........    ... .......          ....  ....  ... ..",
".... .... ..........  .......        ..........  ...   .......              ............     ......           .....  ... .... ..",
"...  .............  ......               .......     .......                  ..................               ...... ....... ..",
"... ............  ......                      ............                       .............                 .......  ....  ..",
".... .........  .......                          ......                                                         .......  .   ...",
".... .......   ......                                                                                            .......  ......",
"..... ...   .......                                                 ......                         ...             .............",
".....     ........                                                ...     ......               ....   ..            ............",
"...... ..........                                               ..              ...............        ...           ...........",
"...............                 .....                         ..                                         ..           ..........",
".............                ....    ......                 ..                                            .            .........",
"............              ...              .................                                              .             ........",
".........               ..                                                                                 .            ........",
".........             ...                                                                                  .            ........",
".........            ..                                                                       .....        .            ........",
"........            ..                                                                      ..    ..       .            ........",
"........          ..       ....                                                             .      ..      .            ........",
"........         ..       ..  ..                                                            ..      ..     .            ........",
".......         ..       .     .                                         ..                  ...     .     .            ........",
".......         .       .      .                                          ...                        .     .            ........",
".......         .      .       .         .                                   ....                    .     .            ........",
".......        .      .       ..        .                                        ...                .      .           .........",
".......        .     ..      ..       ..               ............                 ................       .           .........",
".......       .      .    ...        ..             ...            ...                                     .           .........",
".......       .     ..              ..          ....                  ....                                 .          ..........",
".......       .     .              .          ..                          ..                               .          ..........",
".......      ..     .            ..        ...                              ...                            .          ... ......",
".......      .      .         ...         .                                    ..                          .         .... ......",
".......      .      .       ..         ...                                       .                         .         ...  ......",
"........     .       .   ...         ..                                           ..                       .         ... .......",
"........     .       ....           .                                               ..                     .         ... .......",
"........      .                   ..                                                  .                    .        .... .......",
"........      .                  .                                                     .                   .        .... .......",
"........      .                 .                                                       ...                 .       ...  .......",
".........     .               ..                    ............                          ..                .       ... ........",
".........      .             .                   ...            ....                        .               .       ... ........",
".........      .            .                   ..                  .....                   .               .       ... ........",
"..   .....     .          ..                 ...                         ...                 .               .      ... ........",
".  ..  ...      .         .                ..                              ....              .               .      ... ........",
". .... ...      .        .               ..                                   ...             .               .     ... ..   ...",
".   .. ...      .       .               .                                       ..             .        .     ..    ... . ..  ..",
"...... ...      .       .             ..                                         ..            .        ..     .    ... ..... ..",
"...... ...      .      .            ..                                             .            .        ..    ..   ... ..... ..",
"..... ...       .     .           ..            ..................                 ..           .         ..    .    ..  ...  ..",
"....  ..        .     .           .          ...                 ..                 ..           .         ..   .    ...  .  ...",
"...  ..        .      .         ..         ..                      ..                ..          .          .    .   ....   ....",
"..  ..         .               ..         ..                         .                .           .          .   .   ...........",
".....         ..              .          .                            .                .          .          ..  .    ..........",
".....        ..              .         ..                              ..              ..          .          .   .    .........",
"....        ..              ..        .                                 ..              .          .          ..  .     ........",
"....       ..     ..       ..         .                                  ..             ..         .           .  ..     .......",
"....      ..    ..        ..         .                                     ..            .         .           .   .      ......",
"....      .     .         .         .                                       .            .          .           .  ..      .....",
"...      .     .         .         .            .............                .           .          .           .   .       ....",
"...      .     .         .        ..          ...           ....              .          .          .           .   ..       ...",
"..       .    .         .         .          ..                ..             .          .           .      .   .    .       ...",
".       .    .          .        .          ..                   ..            .         .           .    ....  .    .        ..",
".       .    .  ...    ..       .           .                     ..           .         .           .    .  .  .    .        ..",
"..      ..   .  . ..   .        .          .                       ..          .         .           .    . ..  .   .          .",
"..       .   .     .   .       ..         .                          .          .        .           .    .    .    .         ..",
"...      .   .    .   ..       .          .                           .         .        .           .    .    .    .        ...",
"....     ..  ..  ..   .       .          .                .......     ..        .        .           .    .   ..   .         ...",
"....      ..  ....    .       .          .               ..      .     .        ..       .           .    .  ..    .        ....",
".....      .          .       .          .              ..       .     ..        .        .          .     ...     .        ....",
"......      .         .       .         ..             ..        .      .        .        .          .      .     .        .....",
"......      .         .       .         .             ..         .      .        .        .          .            .        .....",
"......       .        .       .         .             .          ..     .         .       .          .           .        ......",
"......       .        .       .         .             .           .     ..        .       .          .          .        .......",
"......       ..       .       .         .            .            .      .        .       .          .          .       ........",
".......       .       .       .         .            .           ..      .        ..       .         .        ..       .........",
".......       .       .       .          .          .            .       .         .       .         .        .       ..........",
".......       .       .       .          .          .          ..        .         .       .         .       ..      ...........",
".......       .        .      ..         .          .        ...         .         .       .        .       ..      ............",
".......       .        .       .          .         ..                   .         .       .        .       .      .............",
".......       .        .       .          .          .                  ..        .        .        .      ..     ..............",
".......       .        .       .           .         ..                 .         .         .       .      .      ....   .......",
".......       .        .        .          ..         .                 .        .          .       .      .     ....  .  ......",
"........      ..       .        .           .          .               ..        .          .      .      .      ...  ... ......",
"........       .       ..       .           ..          ..             .         .          .      .     .      .... .... ......",
"........        .       .       .            .           .            .         ..         .       .     .      ... ..... ......",
"........        ..      .        .            .           ..       ...          .          .       .     .      ... .. .. ......",
".........        ..      .       .             ..           ..   ...           .          ..       .     .      .. ..  .  ......",
".........         ..     .        .             .            .....           ...          .        .     .      .. .. .  .......",
"..........         .      .       ..             ..                         .            ..       .     .       .. ...  ........",
"...........         .     .        .               .                       ..            .        .     .       .. .............",
".....  .....        .      .       ..               ..                   ..             .        .      .       ... ............",
"......  .....        .     ..       ..               ..                ...             .         .      .       ... ............",
"........ ......      ..     ..       ..                ..            ..               .         .       .       ...  ...........",
"......... .....       .      ..        ..               .............                ..         .       .       .... ...........",
".........  .....      .        .         ..                                         .           .        .      ....  ..........",
".......... ......     .         .          ...                                     .           .         .       ....  .........",
"..........  .....      .         ..           ....                                .           ..          .      ..... .........",
"...........  ....      .          ..              ...                           ..           ..           .       ..... ........",
"............ ....      .            ..              .....                    ...            ..             .      .....  .......",
"............ ....      .              .                 .....          ......              ..       ....   ..      ...... ......",
"............  ....    ..               ..                    ..........                   .       ..   ..   .      .............",
".....     ... ....    .                  ..                                            ...       .      .   .       ............",
"..... ... ... ....    .                   ...                                         ..        .       .   .       ............",
"..... .... .. ....   ..                      ...                                  ....          ....    .    .      ............",
"..... ... ..  ...   ..                          .......                      ......                     .    .      ............",
"..... ...... ....   .   ..........                     ......................                          ..    .      ............",
".....  ....  ....   ....          ....                                                                ..     .      ............",
"......      .....                     ...                                                        .....       .      ............",
"................                        ...                                                   ....           .      ............",
"................                           ..                                             .....              .      ............",
"...............           ..........         ..                                         ..                  .      .............",
"..............          ...............        ....    .......                                             ..      .............",
"..............         ..................          .....     .......                     ........         ..      ....     .....",
"..............        .........         ...                         ...                ...       ..........       ...  .... ....",
"...............     .......    .........   ..                          ...           ..                          .... ..... ....",
"....    ........   .....   ...............  ...                          ..       ...                            .... ..... ....",
"...  ..   ................................. ....                           ..   ...                             ..... .  .. ....",
"... .....  ........................      ... ....                            ...                               .......  ... ....",
"... ...... ........................ ....  .. .....................                                             ........... .....",
"... . .... ........................  ...  ..  ......................                    ......               ............. .....",
"...   .... ......................... ........ .......................               ............            ............. ......",
".......... ......................... ........ .........................          ..................        .............  ......",
".........  .........................          ...........................      ........................................  .......",
".......   ................................................................    .......................................  .........",
"....   .................................................................... ........................................  ..........",
"................................................................................................................................",
"................................................................................................................................"
};
