/* XPM */
static char *cc79cab2797645988f84de0d87c61c09AQubWTUONEGcVMeg[] = {
/* columns rows colors chars-per-pixel */
"64 64 2 1 ",
"  c black",
". c #7CCEE8",
/* pixels */
"                                                                ",
"                                                                ",
"    ........................................................    ",
"    ........................................................    ",
"  ..  ....................................................  ..  ",
"  ..  ....................................................  ..  ",
"  ....  ................................................  ....  ",
"  ....  ................................................  ....  ",
"  ......  ............................................  ......  ",
"  ......  ............................................  ......  ",
"  ........  ........................................  ........  ",
"  ........  ........................................  ........  ",
"  ..........  ....................................  ..........  ",
"  ..........  ....................................  ..........  ",
"  ............  ................................  ............  ",
"  ............  ................................  ............  ",
"  ..............  ............................  ..............  ",
"  ..............  ............................  ..............  ",
"  ................  ........................  ................  ",
"  ................  ........................  ................  ",
"  ..................  ....................  ..................  ",
"  ..................  ....................  ..................  ",
"  ....................  ................  ....................  ",
"  ....................  ................  ....................  ",
"  ......................  ............  ......................  ",
"  ......................  ............  ......................  ",
"  ........................  ........  ........................  ",
"  ........................  ........  ........................  ",
"  ..........................  ....  ..........................  ",
"  ..........................  ....  ..........................  ",
"  ............................    ............................  ",
"  ............................    ............................  ",
"  ............................    ............................  ",
"  ............................    ............................  ",
"  ..........................  ....  ..........................  ",
"  ..........................  ....  ..........................  ",
"  ........................  ........  ........................  ",
"  ........................  ........  ........................  ",
"  ......................  ............  ......................  ",
"  ......................  ............  ......................  ",
"  ....................  ................  ....................  ",
"  ....................  ................  ....................  ",
"  ..................  ....................  ..................  ",
"  ..................  ....................  ..................  ",
"  ................  ........................  ................  ",
"  ................  ........................  ................  ",
"  ..............  ............................  ..............  ",
"  ..............  ............................  ..............  ",
"  ............  ................................  ............  ",
"  ............  ................................  ............  ",
"  ..........  ....................................  ..........  ",
"  ..........  ....................................  ..........  ",
"  ........  ........................................  ........  ",
"  ........  ........................................  ........  ",
"  ......  ............................................  ......  ",
"  ......  ............................................  ......  ",
"  ....  ................................................  ....  ",
"  ....  ................................................  ....  ",
"  ..  ....................................................  ..  ",
"  ..  ....................................................  ..  ",
"    ........................................................    ",
"    ........................................................    ",
"                                                                ",
"                                                                "
};
