/* XPM */
static char *b22213c57363437ad6c6c3491cc8c2c6Y9CkdMof5kYrtNBG[] = {
/* columns rows colors chars-per-pixel */
"64 64 2 1 ",
"  c black",
". c #7EC596",
/* pixels */
"                                                                ",
"                                                                ",
"    ........................................................    ",
"    ........................................................    ",
"  ..  ....................................................  ..  ",
"  ..  ....................................................  ..  ",
"  ....  ................................................  ....  ",
"  ....  ................................................  ....  ",
"  ......  ............................................  ......  ",
"  ......  ............................................  ......  ",
"  ........  ........................................  ........  ",
"  ........  ........................................  ........  ",
"  ..........  ....................................  ..........  ",
"  ..........  ....................................  ..........  ",
"  ............  ................................  ............  ",
"  ............  ................................  ............  ",
"  ..............  ............................  ..............  ",
"  ..............  ............................  ..............  ",
"  ................  ........................  ................  ",
"  ................  ........................  ................  ",
"  ..................  ....................  ..................  ",
"  ..................  ....................  ..................  ",
"  ....................  ................  ....................  ",
"  ....................  ................  ....................  ",
"  ......................  ............  ......................  ",
"  ......................  ............  ......................  ",
"  ........................  ........  ........................  ",
"  ........................  ........  ........................  ",
"  ..........................  ....  ..........................  ",
"  ..........................  ....  ..........................  ",
"  ............................    ............................  ",
"  ............................    ............................  ",
"  ............................    ............................  ",
"  ............................    ............................  ",
"  ..........................  ....  ..........................  ",
"  ..........................  ....  ..........................  ",
"  ........................  ........  ........................  ",
"  ........................  ........  ........................  ",
"  ......................  ............  ......................  ",
"  ......................  ............  ......................  ",
"  ....................  ................  ....................  ",
"  ....................  ................  ....................  ",
"  ..................  ....................  ..................  ",
"  ..................  ....................  ..................  ",
"  ................  ........................  ................  ",
"  ................  ........................  ................  ",
"  ..............  ............................  ..............  ",
"  ..............  ............................  ..............  ",
"  ............  ................................  ............  ",
"  ............  ................................  ............  ",
"  ..........  ....................................  ..........  ",
"  ..........  ....................................  ..........  ",
"  ........  ........................................  ........  ",
"  ........  ........................................  ........  ",
"  ......  ............................................  ......  ",
"  ......  ............................................  ......  ",
"  ....  ................................................  ....  ",
"  ....  ................................................  ....  ",
"  ..  ....................................................  ..  ",
"  ..  ....................................................  ..  ",
"    ........................................................    ",
"    ........................................................    ",
"                                                                ",
"                                                                "
};
