/* XPM */
static char *_5b14d432117407cd6a32e65b02ce0ddjqt1UTeFciUDQDlN[] = {
/* columns rows colors chars-per-pixel */
"64 64 2 1 ",
"  c black",
". c #E8D47C",
/* pixels */
"                                                                ",
"                                                                ",
"    ........................................................    ",
"    ........................................................    ",
"  ..  ....................................................  ..  ",
"  ..  ....................................................  ..  ",
"  ....  ................................................  ....  ",
"  ....  ................................................  ....  ",
"  ......  ............................................  ......  ",
"  ......  ............................................  ......  ",
"  ........  ........................................  ........  ",
"  ........  ........................................  ........  ",
"  ..........  ....................................  ..........  ",
"  ..........  ....................................  ..........  ",
"  ............  ................................  ............  ",
"  ............  ................................  ............  ",
"  ..............  ............................  ..............  ",
"  ..............  ............................  ..............  ",
"  ................  ........................  ................  ",
"  ................  ........................  ................  ",
"  ..................  ....................  ..................  ",
"  ..................  ....................  ..................  ",
"  ....................  ................  ....................  ",
"  ....................  ................  ....................  ",
"  ......................  ............  ......................  ",
"  ......................  ............  ......................  ",
"  ........................  ........  ........................  ",
"  ........................  ........  ........................  ",
"  ..........................  ....  ..........................  ",
"  ..........................  ....  ..........................  ",
"  ............................    ............................  ",
"  ............................    ............................  ",
"  ............................    ............................  ",
"  ............................    ............................  ",
"  ..........................  ....  ..........................  ",
"  ..........................  ....  ..........................  ",
"  ........................  ........  ........................  ",
"  ........................  ........  ........................  ",
"  ......................  ............  ......................  ",
"  ......................  ............  ......................  ",
"  ....................  ................  ....................  ",
"  ....................  ................  ....................  ",
"  ..................  ....................  ..................  ",
"  ..................  ....................  ..................  ",
"  ................  ........................  ................  ",
"  ................  ........................  ................  ",
"  ..............  ............................  ..............  ",
"  ..............  ............................  ..............  ",
"  ............  ................................  ............  ",
"  ............  ................................  ............  ",
"  ..........  ....................................  ..........  ",
"  ..........  ....................................  ..........  ",
"  ........  ........................................  ........  ",
"  ........  ........................................  ........  ",
"  ......  ............................................  ......  ",
"  ......  ............................................  ......  ",
"  ....  ................................................  ....  ",
"  ....  ................................................  ....  ",
"  ..  ....................................................  ..  ",
"  ..  ....................................................  ..  ",
"    ........................................................    ",
"    ........................................................    ",
"                                                                ",
"                                                                "
};
