/* XPM */
static char *_cf31b27bb6e47a9ab4acdf928205c37dyVeGNEzbMDaYrtP[] = {
/* columns rows colors chars-per-pixel */
"64 64 2 1 ",
"  c black",
". c #BE7CE8",
/* pixels */
"                                                                ",
"                                                                ",
"    ........................................................    ",
"    ........................................................    ",
"  ..  ....................................................  ..  ",
"  ..  ....................................................  ..  ",
"  ....  ................................................  ....  ",
"  ....  ................................................  ....  ",
"  ......  ............................................  ......  ",
"  ......  ............................................  ......  ",
"  ........  ........................................  ........  ",
"  ........  ........................................  ........  ",
"  ..........  ....................................  ..........  ",
"  ..........  ....................................  ..........  ",
"  ............  ................................  ............  ",
"  ............  ................................  ............  ",
"  ..............  ............................  ..............  ",
"  ..............  ............................  ..............  ",
"  ................  ........................  ................  ",
"  ................  ........................  ................  ",
"  ..................  ....................  ..................  ",
"  ..................  ....................  ..................  ",
"  ....................  ................  ....................  ",
"  ....................  ................  ....................  ",
"  ......................  ............  ......................  ",
"  ......................  ............  ......................  ",
"  ........................  ........  ........................  ",
"  ........................  ........  ........................  ",
"  ..........................  ....  ..........................  ",
"  ..........................  ....  ..........................  ",
"  ............................    ............................  ",
"  ............................    ............................  ",
"  ............................    ............................  ",
"  ............................    ............................  ",
"  ..........................  ....  ..........................  ",
"  ..........................  ....  ..........................  ",
"  ........................  ........  ........................  ",
"  ........................  ........  ........................  ",
"  ......................  ............  ......................  ",
"  ......................  ............  ......................  ",
"  ....................  ................  ....................  ",
"  ....................  ................  ....................  ",
"  ..................  ....................  ..................  ",
"  ..................  ....................  ..................  ",
"  ................  ........................  ................  ",
"  ................  ........................  ................  ",
"  ..............  ............................  ..............  ",
"  ..............  ............................  ..............  ",
"  ............  ................................  ............  ",
"  ............  ................................  ............  ",
"  ..........  ....................................  ..........  ",
"  ..........  ....................................  ..........  ",
"  ........  ........................................  ........  ",
"  ........  ........................................  ........  ",
"  ......  ............................................  ......  ",
"  ......  ............................................  ......  ",
"  ....  ................................................  ....  ",
"  ....  ................................................  ....  ",
"  ..  ....................................................  ..  ",
"  ..  ....................................................  ..  ",
"    ........................................................    ",
"    ........................................................    ",
"                                                                ",
"                                                                "
};
